<svg width="25" height="26" viewBox="0 0 25 26" fill="none" xmlns="http://www.w3.org/2000/svg">
<g clip-path="url(#clip0_136_6230)">
<path d="M0.286425 12.2811C0.286716 12.2808 0.286961 12.2804 0.287302 12.2801L5.39004 6.99887C5.77231 6.60323 6.39062 6.60471 6.77114 7.00232C7.15161 7.39989 7.15014 8.04293 6.76787 8.43862L3.34189 11.9844H24.0234C24.5628 11.9844 25 12.4391 25 13C25 13.5609 24.5628 14.0156 24.0234 14.0156H3.34194L6.76782 17.5614C7.1501 17.9571 7.15156 18.6001 6.77109 18.9977C6.39058 19.3953 5.77221 19.3967 5.38999 19.0011L0.287254 13.7199C0.286961 13.7196 0.286716 13.7192 0.286375 13.7189C-0.096096 13.3219 -0.0948753 12.6768 0.286425 12.2811Z" fill="white"/>
</g>
<defs>
<clipPath id="clip0_136_6230">
<rect width="25" height="26" fill="white" transform="matrix(-1 0 0 1 25 0)"/>
</clipPath>
</defs>
</svg>
