<svg width="120" height="120" viewBox="0 0 120 120" fill="none" xmlns="http://www.w3.org/2000/svg">
<g clip-path="url(#clip0_138_6392)">
<path d="M51.2586 95.9085C48.2401 96.867 44.958 96.8158 41.9431 95.719C38.9283 94.6212 36.3822 92.5512 34.6858 89.877C31.5208 89.7452 28.4547 88.5742 25.9975 86.5124C25.6871 86.2524 25.3886 85.9796 25.1039 85.6958L17.2652 102.1C16.6765 103.332 16.8441 104.791 17.6955 105.857C18.5469 106.924 19.933 107.41 21.2651 107.108L36.9773 103.545L44.0754 118.008C44.6741 119.228 45.9147 120 47.2715 120H47.2907C48.6558 119.993 49.8963 119.206 50.4841 117.974L59.5963 98.9059C56.5604 98.8043 53.6417 97.745 51.2586 95.9085Z" fill="white"/>
<path d="M94.1564 86.5124C91.6991 88.5742 88.6321 89.7442 85.468 89.8761C83.7716 92.5512 81.2246 94.6212 78.2098 95.718C75.1959 96.8158 71.9137 96.867 68.8952 95.9085C66.5121 97.745 63.5934 98.8043 60.5576 98.9059L69.6688 117.974C70.2575 119.206 71.4981 119.992 72.8631 120H72.8814C74.2391 120 75.4788 119.228 76.0775 118.008L83.1765 103.545L98.8887 107.107C100.22 107.41 101.606 106.924 102.457 105.857C103.31 104.791 103.476 103.332 102.889 102.1L95.049 85.6958C94.7643 85.9796 94.4667 86.2515 94.1564 86.5124Z" fill="white"/>
<path d="M103.834 43.7062C105.111 42.072 105.636 39.9654 105.277 37.9274C104.917 35.8894 103.703 34.0895 101.946 32.99C100.56 32.1239 99.9415 30.4265 100.447 28.872C101.087 26.8999 100.861 24.7411 99.8253 22.9485C98.7907 21.1559 97.0338 19.8806 95.006 19.4485C93.4084 19.1088 92.2466 17.7245 92.1889 16.0922C92.1156 14.0194 91.1644 12.0684 89.5796 10.7382C87.994 9.40701 85.9075 8.81008 83.853 9.09756C82.2362 9.32552 80.6707 8.42099 80.0582 6.90671C79.2809 4.98411 77.7199 3.47533 75.7745 2.76763C73.8299 2.05993 71.6638 2.21191 69.8336 3.18511C68.3908 3.9514 66.611 3.63738 65.5169 2.42339C64.1299 0.88348 62.1469 0 60.0769 0C58.0069 0 56.0239 0.88348 54.6369 2.42339C53.5428 3.63738 51.763 3.9514 50.3202 3.18511C48.49 2.21191 46.3239 2.05993 44.3793 2.76763C42.4338 3.47533 40.8729 4.98411 40.0956 6.90671C39.4831 8.42099 37.9185 9.32552 36.3007 9.09756C34.2472 8.81008 32.1598 9.40701 30.5741 10.7382C28.9885 12.0684 28.0381 14.0194 27.9649 16.0922C27.9072 17.7245 26.7463 19.1088 25.1478 19.4494C23.1199 19.8806 21.3631 21.1559 20.3285 22.9485C19.2931 24.7411 19.0669 26.8999 19.7069 28.872C20.2113 30.4265 19.5934 32.1239 18.2082 32.9909C16.4504 34.0895 15.2364 35.8894 14.8766 37.9274C14.5177 39.9663 15.0432 42.072 16.3194 43.7071C17.3247 44.9943 17.3247 46.8016 16.3194 48.0888C15.0432 49.723 14.5177 51.8296 14.8766 53.8676C15.2364 55.9064 16.4504 57.7055 18.2082 58.805C19.5934 59.6711 20.2122 61.3685 19.7078 62.923C19.0669 64.8951 19.294 67.0539 20.3285 68.8465C21.364 70.6391 23.1199 71.9144 25.1478 72.3465C26.7463 72.6862 27.9072 74.0704 27.9649 75.7037C28.0381 77.7756 28.9894 79.7275 30.5751 81.0577C32.1607 82.388 34.2481 82.9858 36.3007 82.6974C37.9185 82.4713 39.4831 83.374 40.0956 84.8892C40.8729 86.8109 42.4347 88.3196 44.3793 89.0274C46.3248 89.735 48.49 89.5831 50.3211 88.6108C50.8484 88.3297 51.4224 88.1942 51.9901 88.1942C52.9743 88.1942 53.9429 88.6016 54.6369 89.3716C56.0248 90.9124 58.0078 91.795 60.0769 91.795C62.1469 91.795 64.1299 90.9115 65.5178 89.3716C66.611 88.1576 68.3908 87.8445 69.8336 88.6108C71.6647 89.584 73.8299 89.735 75.7754 89.0274C77.7199 88.3196 79.2809 86.8109 80.0582 84.8892C80.6707 83.374 82.2362 82.4704 83.854 82.6974C85.9066 82.9849 87.994 82.388 89.5796 81.0577C91.1653 79.7275 92.1166 77.7756 92.1898 75.7037C92.2466 74.0704 93.4084 72.6871 95.006 72.3465C97.0338 71.9144 98.7907 70.6391 99.8262 68.8465C100.861 67.0539 101.087 64.8951 100.447 62.923C99.9425 61.3694 100.56 59.6711 101.946 58.805C103.704 57.7055 104.918 55.9064 105.278 53.8685C105.637 51.8296 105.111 49.7239 103.835 48.0888C102.829 46.8007 102.829 44.9943 103.834 43.7062ZM60.0769 77.0944C42.8751 77.0944 28.8795 63.0997 28.8795 45.8979C28.8795 28.6953 42.8751 14.7006 60.0769 14.7006C77.2787 14.7006 91.2734 28.6953 91.2734 45.8979C91.2734 63.0997 77.2787 77.0944 60.0769 77.0944Z" fill="white"/>
<path d="M60.0769 21.8215C46.8009 21.8215 36.0005 32.622 36.0005 45.898C36.0005 59.1731 46.8009 69.9735 60.0769 69.9735C73.3529 69.9735 84.1524 59.1731 84.1524 45.898C84.1524 32.622 73.352 21.8215 60.0769 21.8215ZM45.0385 41.4815C46.4292 40.0908 48.6832 40.0908 50.0739 41.4815L57.1692 48.5768L70.0799 35.6661C71.4706 34.2754 73.7246 34.2754 75.1153 35.6661C76.506 37.0558 76.506 39.3108 75.1153 40.7005L59.6869 56.1299C59.0195 56.7973 58.1131 57.1726 57.1692 57.1726C56.2253 57.1726 55.3198 56.7973 54.6515 56.1299L45.0394 46.5169C43.6478 45.1262 43.6478 42.8722 45.0385 41.4815Z" fill="white"/>
</g>
<defs>
<clipPath id="clip0_138_6392">
<rect width="120" height="120" fill="white"/>
</clipPath>
</defs>
</svg>
