<svg width="408" height="621" viewBox="0 0 408 621" fill="none" xmlns="http://www.w3.org/2000/svg">
<g clip-path="url(#clip0_138_6397)">
<path d="M143.68 621H188.493L188.493 429.853H143.68L143.68 621Z" fill="#C6C279"/>
<path d="M71.206 621H116.019L116.019 429.853H71.206L71.206 621Z" fill="#C6C279"/>
<path d="M7.62939e-06 621H44.8133L44.8133 429.853H7.62939e-06L7.62939e-06 621Z" fill="#C6C279"/>
<path d="M408 475.457V430.158H218.903V475.457H408Z" fill="#02546D"/>
<path d="M408 548.747V503.448H218.903V548.747H408Z" fill="#02546D"/>
<path d="M408 620.695V575.396H218.903V620.695H408Z" fill="#02546D"/>
<path d="M143.68 191.147H188.493L188.493 -1.52588e-05H143.68L143.68 191.147Z" fill="#C6C279"/>
<path d="M71.206 191.147H116.019L116.019 -1.52588e-05H71.206L71.206 191.147Z" fill="#C6C279"/>
<path d="M7.62939e-06 191.147H44.8133L44.8133 -1.52588e-05H7.62939e-06L7.62939e-06 191.147Z" fill="#C6C279"/>
<path d="M408 45.6044V0.305298L218.903 0.305298V45.6044L408 45.6044Z" fill="#02546D"/>
<path d="M408 118.895V73.5957L218.903 73.5957V118.895L408 118.895Z" fill="#02546D"/>
<path d="M408 190.842V145.543H218.903V190.842H408Z" fill="#02546D"/>
<path d="M262.84 215.079H218.027V406.226H262.84V215.079Z" fill="#F8A861"/>
<path d="M335.375 215.079H290.561V406.226H335.375V215.079Z" fill="#F8A861"/>
<path d="M406.551 215.079H361.737V406.226H406.551V215.079Z" fill="#F8A861"/>
<path d="M189.188 260.683V215.384H0.0906525V260.683H189.188Z" fill="#447469"/>
<path d="M189.188 333.974V288.675H0.0906525V333.974H189.188Z" fill="#447469"/>
<path d="M189.188 405.921V360.622H0.0906525V405.921H189.188Z" fill="#447469"/>
</g>
<defs>
<clipPath id="clip0_138_6397">
<rect width="408" height="621" fill="white"/>
</clipPath>
</defs>
</svg>
