<svg width="22" height="22" viewBox="0 0 22 22" fill="none" xmlns="http://www.w3.org/2000/svg">
<path d="M21.674 11.0641C21.674 5.28129 16.987 0.594299 11.205 0.594299C5.42307 0.594299 0.736084 5.28129 0.736084 11.0641C0.736084 16.2886 4.56455 20.6196 9.56912 21.4048V14.0899H6.91153V11.0633H9.56912V8.75727C9.56912 6.13284 11.1326 4.68364 13.5232 4.68364C14.6688 4.68364 15.8667 4.8878 15.8667 4.8878V7.46425H14.5475C13.2475 7.46425 12.8418 8.2713 12.8418 9.09929V11.0641H15.7454L15.2813 14.0908H12.8418V21.4057C17.8464 20.6205 21.6749 16.2894 21.6749 11.0641H21.674Z" fill="currentColor"/>
</svg>