<svg width="108" height="108" viewBox="0 0 108 108" fill="none" xmlns="http://www.w3.org/2000/svg">
<path d="M102.428 22.6902C105.691 21.3698 108 18.1734 108 14.447C108 9.54397 104.005 5.55493 99.0951 5.55493C94.1851 5.55493 90.1903 9.54397 90.1903 14.447C90.1903 18.1719 92.4969 21.3672 95.758 22.6888C92.7558 23.9824 90.6481 26.9697 90.6481 30.4411V34.8892C87.213 30.4384 82.9828 26.6291 78.1369 23.6719C77.548 23.3125 76.9511 22.9682 76.3484 22.6364V17.127C76.3484 15.3796 74.9317 13.9629 73.1843 13.9629C71.4369 13.9629 70.0203 15.3796 70.0203 17.127V19.7479C65.8973 18.2289 61.5699 17.2995 57.1641 16.9985V12.9169C57.1641 11.1695 55.7474 9.7528 54 9.7528C52.2526 9.7528 50.8359 11.1695 50.8359 12.9169V16.9987C46.4301 17.2997 42.1025 18.2291 37.9795 19.7481V17.127C37.9795 15.3796 36.5629 13.9629 34.8154 13.9629C33.068 13.9629 31.6514 15.3796 31.6514 17.127V22.6362C31.0487 22.968 30.452 23.3123 29.8628 23.6717C25.017 26.6289 20.787 30.4382 17.3517 34.889V30.4409C17.3517 26.971 15.2457 23.9848 12.2375 22.6902C15.5007 21.3698 17.8095 18.1734 17.8095 14.447C17.8095 9.54397 13.8147 5.55493 8.90473 5.55493C3.99473 5.55493 0 9.54376 0 14.447C0 18.1719 2.3066 21.3672 5.56791 22.6888C2.56563 23.9824 0.457945 26.9697 0.457945 30.4411V99.2814C0.457945 101.029 1.8746 102.445 3.62201 102.445H14.1879C15.9353 102.445 17.3519 101.029 17.3519 99.2814V92.937H90.6483V99.2814C90.6483 101.029 92.0649 102.445 93.8123 102.445H104.378C106.126 102.445 107.542 101.029 107.542 99.2814V30.4409C107.542 26.971 105.436 23.9848 102.428 22.6902ZM57.1641 86.6087V65.2654H70.0205V86.6089L57.1641 86.6087ZM37.9795 86.6087V65.2654H50.8359V86.6089L37.9795 86.6087ZM17.3519 65.2654H31.6514V86.6089H17.3519V65.2654ZM76.3486 65.2654H90.6481V86.6089H76.3486V65.2654ZM89.5546 44.914L90.6483 47.0466V58.9373H76.3488V30.0079C81.8315 33.7005 86.4053 38.7729 89.5546 44.914ZM70.0205 26.5369V58.9371H57.1641V23.3429C61.6665 23.6939 66.0017 24.7878 70.0205 26.5369ZM50.8359 23.3429V58.9371H37.9795V26.5369C41.9983 24.7878 46.3335 23.6939 50.8359 23.3429ZM18.4454 44.914C21.5947 38.7729 26.1683 33.7005 31.6512 30.0081V58.9373H17.3517V47.0466L18.4454 44.914Z" fill="white"/>
</svg>
