<?xml version="1.0" encoding="UTF-8"?>
<svg id="Layer_1" data-name="Layer 1" xmlns="http://www.w3.org/2000/svg" viewBox="0 0 711.3 601.78">
  <defs>
    <style>
      .cls-1 {
        fill: #e0dfe0;
      }
    </style>
  </defs>
  <polygon class="cls-1" points="38.77 462.15 61.21 389.69 0 345.93 75.35 345.09 97.79 272.66 121.68 344.74 197.02 343.9 136.54 388.86 160.94 460.87 99.16 416.69 38.77 462.15"/>
  <path class="cls-1" d="M334.97,582.6S254.09,286.07,97.56,242.51l56.45-33.19s116.67,19.78,180.96,373.28"/>
  <path class="cls-1" d="M375.3,563.95s67.41-284.85,197.85-326.7l-47.06-31.89s-97.22,19.01-150.79,358.59"/>
  <path class="cls-1" d="M358.65,601.78s23.73-392.61,158.53-483.54l-61.34-11.37s-129.16,32.18-97.19,494.91"/>
  <polygon class="cls-1" points="337.33 233.89 276.25 167.05 193.9 204.87 238.19 126.61 177.11 60.67 265.64 78.25 310.78 0 320.53 88.8 409.06 107.28 327.61 144.2 337.33 233.89"/>
  <polygon class="cls-1" points="709.78 414.39 697.03 395.04 711.3 376.43 688.82 383.14 676.03 363.04 675.31 386.87 652.07 392.82 674.57 400.99 673.07 424.07 688.05 406.21 709.78 414.39"/>
  <polygon class="cls-1" points="342.41 310.92 322.11 281.25 343.85 253.16 309.06 263.36 288.79 233.67 287.88 269.37 253.6 279.75 287.82 291.64 286.95 327.33 308.67 299.23 342.41 310.92"/>
  <polygon class="cls-1" points="574.48 395.07 552.01 363.82 515.3 374.96 538.52 344.45 516.78 313.18 552.73 325.84 575.99 295.31 575.24 333.29 611.22 345.94 574.48 357.09 574.48 395.07"/>
  <polygon class="cls-1" points="647.81 285.66 634.3 269.28 645.56 250.67 626.08 258.86 611.86 242.47 613.32 264.08 593.12 272.26 614.08 277.45 615.59 298.32 627.57 280.45 647.81 285.66"/>
  <polygon class="cls-1" points="602.76 191.98 603.22 150.65 642.23 138.51 602.73 125.18 603.2 83.83 578.81 116.86 539.66 104.05 564.07 137.81 539.68 170.85 578.7 158.7 602.76 191.98"/>
  <polygon class="cls-1" points="469.76 66.82 457 47.46 471.27 28.86 448.78 35.56 436.01 15.47 435.28 39.29 412.04 45.24 434.54 53.42 433.04 76.5 448.01 58.63 469.76 66.82"/>
</svg>