<svg width="105" height="105" viewBox="0 0 105 105" fill="none" xmlns="http://www.w3.org/2000/svg">
<path d="M103.299 33.2738L96.7091 29.979C95.1897 29.2192 93.3417 29.8351 92.5819 31.3547C91.8221 32.8743 92.4381 34.7219 93.9576 35.4819L100.547 38.7767C102.065 39.5355 103.914 38.9227 104.675 37.401C105.434 35.8814 104.818 34.0336 103.299 33.2738Z" fill="white"/>
<path d="M96.7091 9.12325L103.299 5.82826C104.819 5.06845 105.434 3.22069 104.675 1.70106C103.915 0.18164 102.067 -0.43462 100.547 0.3254L93.9576 3.62039C92.4379 4.3802 91.8221 6.22796 92.5819 7.74759C93.3448 9.27337 95.1956 9.87999 96.7091 9.12325Z" fill="white"/>
<path d="M50.3247 51.3731C50.9016 51.95 51.684 52.2742 52.5 52.2742C53.316 52.2742 54.0984 51.95 54.6753 51.3731L80.2352 25.813C86.1517 19.8965 86.1416 10.3292 80.2352 4.42271C74.3375 -1.47431 64.7421 -1.4741 58.8451 4.42251L52.5 10.7672L46.1549 4.42251C40.2579 -1.4741 30.6625 -1.4741 24.7648 4.42271C18.8584 10.3292 18.8483 19.8965 24.7648 25.813L50.3247 51.3731Z" fill="white"/>
<path d="M83.2291 67.5213L68.3511 82.3997C66.5232 84.2257 64.097 85.2304 61.5179 85.2304H50.3539C48.6974 85.2304 47.2721 83.9575 47.1942 82.3029C47.111 80.5364 48.5186 79.0781 50.2669 79.0781H60.2288C63.8683 79.0781 66.8186 76.1276 66.8186 72.4883C66.8186 68.849 63.8681 65.8985 60.2288 65.8985H40.1656C30.8335 65.8985 27.8767 73.7596 27.3865 75.7833H22.6267V98.4102H65.0459C68.871 98.4102 72.4683 96.9201 75.1753 94.2141L97.5089 71.8796C98.6778 70.7109 98.7486 68.7657 97.4939 67.5143C93.4043 63.4349 87.0563 63.6941 83.2291 67.5213Z" fill="white"/>
<path d="M13.3986 69.1934H3.07617C1.3773 69.1934 0 70.5707 0 72.2695V101.924C0 103.623 1.3773 105 3.07617 105H13.3984C15.0972 105 16.4745 103.623 16.4745 101.924V72.2695C16.4747 70.5707 15.0974 69.1934 13.3986 69.1934Z" fill="white"/>
<path d="M8.2911 29.979L1.70112 33.2738C0.181493 34.0336 -0.434357 35.8814 0.325457 37.401C1.0863 38.9229 2.93508 39.5355 4.45265 38.7767L11.0424 35.4819C12.5621 34.7221 13.1779 32.8743 12.4181 31.3547C11.6583 29.8351 9.81032 29.2192 8.2911 29.979Z" fill="white"/>
<path d="M1.70108 5.82802L8.29086 9.12301C9.80434 9.87975 11.6552 9.27312 12.4181 7.74734C13.1779 6.22771 12.562 4.37996 11.0424 3.62015L4.45262 0.325156C2.93299 -0.434864 1.08523 0.181396 0.325419 1.70082C-0.434395 3.22045 0.181455 5.0682 1.70108 5.82802Z" fill="white"/>
</svg>
