<svg width="546" height="365" viewBox="0 0 546 365" fill="none" xmlns="http://www.w3.org/2000/svg">
<g opacity="0.6" clip-path="url(#clip0_113_2099)">
<path d="M524.355 171.749H565V0H524.355V171.749Z" fill="#C6C279"/>
<path d="M458.595 171.749H499.24V0H458.595V171.749Z" fill="#C6C279"/>
<path d="M394.04 171.749H434.685V0H394.04V171.749Z" fill="#C6C279"/>
<path d="M369.171 40.9487V0.246841L197.664 0.246841V40.9487L369.171 40.9487Z" fill="#02546D"/>
<path d="M369.171 106.801V66.0993L197.664 66.0993V106.801L369.171 106.801Z" fill="#02546D"/>
<path d="M369.199 171.474V130.772L197.691 130.772V171.474H369.199Z" fill="#02546D"/>
<path d="M238.308 193.251H197.664V365H238.308V193.251Z" fill="#F8A861"/>
<path d="M304.096 193.251H263.451V365H304.096V193.251Z" fill="#F8A861"/>
<path d="M368.651 193.251H328.006V365H368.651V193.251Z" fill="#F8A861"/>
<path d="M565 234.228V193.526L393.492 193.526V234.228H565Z" fill="#447469"/>
<path d="M565 300.08V259.378H393.492V300.08H565Z" fill="#447469"/>
<path d="M565 364.726V324.024H393.492V364.726H565Z" fill="#447469"/>
<path d="M171.508 234.228V193.526L0 193.526V234.228H171.508Z" fill="#447469"/>
<path d="M171.508 300.08V259.378H0V300.08H171.508Z" fill="#447469"/>
<path d="M171.508 364.726V324.024H0V364.726H171.508Z" fill="#447469"/>
</g>
<defs>
<clipPath id="clip0_113_2099">
<rect width="565" height="365" fill="white"/>
</clipPath>
</defs>
</svg>
