<svg width="21" height="22" viewBox="0 0 21 22" fill="none" xmlns="http://www.w3.org/2000/svg">
<path d="M10.817 0.857788C8.06172 0.857788 7.71773 0.870466 6.63589 0.918641C5.55575 0.969352 4.82044 1.13923 4.17387 1.39025C3.50702 1.64888 2.94075 1.99625 2.37701 2.55999C1.81327 3.12373 1.46505 3.68916 1.20727 4.35685C0.956251 5.00342 0.785524 5.73873 0.735658 6.81888C0.684947 7.90071 0.674805 8.2447 0.674805 11C0.674805 13.7553 0.687482 14.0993 0.735658 15.1811C0.786369 16.2604 0.956251 16.9966 1.20727 17.6432C1.46192 18.32 1.8611 18.9332 2.37701 19.44C2.88351 19.9563 3.49679 20.3555 4.17387 20.6098C4.82128 20.8599 5.55659 21.0315 6.63589 21.0814C7.71773 21.1321 8.06172 21.1422 10.817 21.1422C13.5723 21.1422 13.9163 21.1295 14.9982 21.0814C16.0775 21.0307 16.8136 20.8599 17.4602 20.6098C18.1369 20.3548 18.75 19.9557 19.257 19.44C19.7735 18.9337 20.1727 18.3203 20.4268 17.6432C20.677 16.9966 20.8485 16.2604 20.8984 15.1811C20.9491 14.0993 20.9592 13.7553 20.9592 11C20.9592 8.2447 20.9466 7.90071 20.8984 6.81888C20.8477 5.73958 20.677 5.00257 20.4268 4.35685C20.172 3.68005 19.7728 3.06687 19.257 2.55999C18.7509 2.04328 18.1375 1.64397 17.4602 1.39025C16.8136 1.13923 16.0775 0.968507 14.9982 0.918641C13.9163 0.86793 13.5723 0.857788 10.817 0.857788ZM10.817 2.68339C13.5242 2.68339 13.847 2.69691 14.9162 2.7434C15.905 2.78988 16.4417 2.95385 16.7984 3.09415C17.2734 3.27755 17.6098 3.4973 17.9664 3.85143C18.3206 4.20641 18.5403 4.54364 18.7237 5.01863C18.8623 5.3753 19.028 5.91199 19.0728 6.90086C19.121 7.97086 19.132 8.29204 19.132 11C19.132 13.708 19.1193 14.03 19.0694 15.0992C19.0179 16.088 18.853 16.6247 18.7136 16.9814C18.5486 17.4215 18.2893 17.8202 17.9538 18.1494C17.6259 18.4852 17.2275 18.7439 16.7874 18.9067C16.4324 19.0453 15.8873 19.211 14.8984 19.2558C13.8217 19.3039 13.5047 19.3149 10.7917 19.3149C8.07778 19.3149 7.76084 19.3023 6.68492 19.2524C5.6952 19.2008 5.15006 19.036 4.79508 18.8966C4.35466 18.7336 3.95638 18.474 3.62957 18.1367C3.2903 17.8111 3.03009 17.4122 2.8689 16.9704C2.72945 16.6154 2.56548 16.0703 2.51393 15.0814C2.47589 14.0165 2.46237 13.6877 2.46237 10.9873C2.46237 8.28612 2.47589 7.9565 2.51393 6.87889C2.56548 5.89002 2.72945 5.34572 2.8689 4.99074C3.04639 4.50899 3.27375 4.17937 3.62957 3.82354C3.9837 3.46941 4.31417 3.24121 4.79508 3.06457C5.15006 2.92427 5.68337 2.75945 6.67224 2.70874C7.74985 2.67071 8.06679 2.65803 10.779 2.65803L10.817 2.68339ZM10.817 5.79198C10.1331 5.79198 9.45586 5.92669 8.824 6.18842C8.19213 6.45014 7.618 6.83376 7.13439 7.31737C6.65078 7.80098 6.26716 8.37511 6.00543 9.00698C5.7437 9.63885 5.60899 10.3161 5.60899 11C5.60899 11.6839 5.7437 12.3612 6.00543 12.993C6.26716 13.6249 6.65078 14.199 7.13439 14.6826C7.618 15.1663 8.19213 15.5499 8.824 15.8116C9.45586 16.0733 10.1331 16.208 10.817 16.208C12.1983 16.208 13.523 15.6593 14.4997 14.6826C15.4764 13.7059 16.0251 12.3813 16.0251 11C16.0251 9.61875 15.4764 8.29407 14.4997 7.31737C13.523 6.34068 12.1983 5.79198 10.817 5.79198ZM10.817 14.3807C8.94917 14.3807 7.43628 12.8679 7.43628 11C7.43628 9.13215 8.94917 7.61927 10.817 7.61927C12.6849 7.61927 14.1978 9.13215 14.1978 11C14.1978 12.8679 12.6849 14.3807 10.817 14.3807ZM17.4483 5.5866C17.4366 5.90153 17.3032 6.19966 17.0763 6.41832C16.8493 6.63698 16.5464 6.75914 16.2313 6.75914C15.9161 6.75914 15.6132 6.63698 15.3863 6.41832C15.1593 6.19966 15.026 5.90153 15.0142 5.5866C15.0142 5.26381 15.1424 4.95425 15.3707 4.726C15.5989 4.49776 15.9085 4.36953 16.2313 4.36953C16.5541 4.36953 16.8636 4.49776 17.0919 4.726C17.3201 4.95425 17.4483 5.26381 17.4483 5.5866Z" fill="currentColor"/>
</svg>