<svg width="252" height="73" viewBox="0 0 252 73" fill="none" xmlns="http://www.w3.org/2000/svg">
<g clip-path="url(#clip0_187_2233)">
<path d="M91.0847 11.5337C91.5388 11.556 91.9962 11.5496 92.4472 11.61C93.0306 11.6896 93.1946 11.9377 93.1915 12.5993C93.1915 12.8378 93.2009 13.1114 93.0969 13.3054C92.7657 13.9257 92.8477 14.5014 93.0622 15.1439C94.5256 19.5462 95.9606 23.958 97.4114 28.3635C97.4839 28.5861 97.6196 28.7897 97.7394 28.9933C97.7741 29.0537 97.8561 29.1014 97.9255 29.1205C98.0516 29.1587 98.1778 29.0855 98.2503 28.9106C98.4301 28.4684 98.6036 28.0231 98.7613 27.5682C100.417 22.727 102.067 17.8826 103.716 13.0382C103.845 12.6597 103.962 12.2716 104.205 11.9567C104.293 11.8391 104.429 11.7245 104.564 11.6832C105.079 11.5146 105.608 11.5082 106.129 11.6768C106.356 11.75 106.542 11.9249 106.624 12.1412C106.889 12.8092 107.125 13.4867 107.356 14.1674C108.879 18.7192 110.396 23.2678 111.916 27.8195C112.071 28.2744 112.206 28.7324 112.478 29.13C112.582 29.2795 112.705 29.2859 112.837 29.1205C112.935 28.9996 113.033 28.8724 113.102 28.7356C113.175 28.5957 113.222 28.4398 113.272 28.2871C114.707 23.9612 116.142 19.6321 117.574 15.3062C117.675 15.004 117.77 14.6954 117.827 14.3805C117.868 14.1483 117.861 13.9098 117.7 13.6967C117.395 13.2927 117.369 12.8156 117.404 12.3225C117.429 12.0013 117.682 11.6832 117.943 11.645C118.019 11.6355 118.092 11.5973 118.167 11.5941C119.227 11.5305 120.287 11.486 121.343 11.6291C121.643 11.6705 121.892 11.9281 121.927 12.2589C121.942 12.418 121.961 12.5802 121.955 12.7392C121.936 13.2577 121.782 13.4835 121.356 13.6235C121.283 13.6489 121.208 13.6585 121.132 13.6712C120.725 13.7412 120.432 13.9861 120.284 14.3805C120.056 14.9785 119.858 15.5861 119.653 16.1936C118.574 19.4571 117.495 22.7238 116.417 25.9906C115.814 27.8132 115.212 29.6358 114.606 31.4552C114.455 31.9101 114.288 32.3586 114.114 32.8039C113.988 33.122 113.745 33.3319 113.43 33.3605C112.979 33.3987 112.525 33.3892 112.071 33.3796C111.746 33.3733 111.494 33.1888 111.342 32.8898C111.203 32.6067 111.087 32.3077 110.986 32.0055C109.475 27.5364 107.971 23.0642 106.457 18.5951C106.176 17.7649 105.965 16.9029 105.552 16.1236C105.457 15.9455 105.334 15.8914 105.214 15.9646C105.151 16.0028 105.079 16.0505 105.041 16.1141C104.924 16.3208 104.798 16.5276 104.719 16.7502C104.505 17.3514 104.315 17.9653 104.107 18.5697C102.619 22.9624 101.127 27.3519 99.6349 31.7447C99.5056 32.12 99.3637 32.4953 99.1997 32.8548C99.0609 33.157 98.8181 33.3542 98.49 33.3733C98.1116 33.3955 97.7331 33.4082 97.3546 33.4019C96.9478 33.3923 96.6135 33.2174 96.4463 32.8039C96.2665 32.3617 96.1088 31.9101 95.9543 31.4552C94.8946 28.268 93.8412 25.0777 92.7846 21.8905C92.0309 19.613 91.2771 17.3323 90.5201 15.058C90.4192 14.7559 90.2994 14.4601 90.1574 14.177C90.0502 13.9638 89.8767 13.8048 89.6434 13.738C89.4983 13.6967 89.3469 13.6648 89.2018 13.6203C88.735 13.474 88.6625 13.2354 88.6309 12.7138C88.6152 12.4816 88.6656 12.2303 88.7413 12.0108C88.7855 11.8804 88.9274 11.7691 89.0536 11.6991C89.1829 11.6259 89.3406 11.5878 89.4888 11.5846C90.0187 11.5719 90.5517 11.5782 91.0815 11.5782V11.5337H91.0847Z" fill="white"/>
<path d="M138.917 24.6037C138.917 24.7627 138.892 24.9218 138.882 25.084C138.863 25.3798 138.582 25.7074 138.314 25.7361C138.015 25.7679 137.712 25.8156 137.412 25.8156C135.671 25.822 133.93 25.8188 132.189 25.8188V25.8283C130.449 25.8283 128.704 25.8283 126.963 25.8283C126.664 25.8283 126.361 25.822 126.068 25.946C125.923 26.0064 125.831 26.1051 125.778 26.28C125.68 26.6013 125.715 26.9193 125.812 27.2215C126.522 29.3845 127.985 30.6473 130.064 31.1276C130.877 31.3152 131.701 31.3948 132.546 31.2834C133.697 31.1308 134.76 30.7713 135.703 30.0429C135.883 29.903 136.094 29.798 136.271 29.6517C136.463 29.4958 136.911 29.5944 137.11 29.7948C137.217 29.9061 137.324 30.0206 137.419 30.1447C137.69 30.4978 137.69 30.9494 137.431 31.2357C137.327 31.3502 137.226 31.4743 137.113 31.5793C135.917 32.6576 134.492 33.1792 132.975 33.3987C131.458 33.615 129.947 33.4878 128.49 32.9534C126.304 32.1518 124.667 30.695 123.791 28.3825C123.245 26.9448 123.012 25.4466 123.264 23.8944C123.377 23.1819 123.491 22.4725 123.756 21.795C124.756 19.2345 126.516 17.6281 129.055 16.9856C129.644 16.8361 130.237 16.7025 130.846 16.6898C132.155 16.6612 133.407 16.9315 134.596 17.5041C136.57 18.4552 137.86 20.0551 138.526 22.2372C138.759 23.0069 138.923 23.7862 138.92 24.6005L138.917 24.6037ZM136.513 23.2996C136.457 23.0674 136.425 22.8288 136.346 22.603C135.561 20.3541 134.016 19.139 131.792 18.8623C131.035 18.7701 130.285 18.8432 129.543 19.0054C129.323 19.0532 129.108 19.1359 128.9 19.2281C127.342 19.9088 126.298 21.1016 125.8 22.8129C125.733 23.0387 125.721 23.2741 125.781 23.519C125.822 23.6972 125.885 23.8212 126.058 23.8594C126.276 23.9071 126.494 23.9962 126.714 23.9993C128.146 24.0121 129.578 24.0057 131.013 24.0057V24.0152C132.445 24.0152 133.877 24.0152 135.312 24.0152C135.611 24.0152 135.911 23.993 136.198 23.8753C136.343 23.818 136.554 23.4745 136.517 23.2996H136.513Z" fill="white"/>
<path d="M155.144 29.1205C155.036 30.5041 154.374 31.5347 153.286 32.2695C152.838 32.5717 152.359 32.8198 151.848 32.9788C150.75 33.3192 149.637 33.5609 148.735 33.475C146.71 33.51 145.02 33.1124 143.398 32.3776C143.052 32.2218 142.73 31.9991 142.418 31.7765C142.093 31.5379 141.919 31.188 141.885 30.7618C141.853 30.3578 141.84 29.9539 141.944 29.5626C141.982 29.4227 142.096 29.2668 142.213 29.1936C142.632 28.9328 143.083 28.9328 143.512 29.1618C143.717 29.27 143.846 29.464 143.925 29.7089C144.051 30.1129 144.332 30.3705 144.695 30.5423C145.89 31.1085 147.167 31.3057 148.454 31.3948C149.369 31.4584 150.268 31.2771 151.148 31.0099C151.517 30.8986 151.835 30.6823 152.128 30.4183C152.759 29.8489 152.971 28.8088 152.589 28.0008C152.491 27.7909 152.337 27.6 152.169 27.441C151.829 27.1102 151.416 26.8939 150.974 26.7698C150.242 26.5663 149.514 26.35 148.757 26.2291C147.931 26.0987 147.114 25.9237 146.303 25.717C145.789 25.5866 145.291 25.3798 144.802 25.1699C144.379 24.9918 143.998 24.715 143.657 24.3938C143.07 23.8403 142.686 23.1628 142.591 22.323C142.556 22.005 142.525 21.6837 142.528 21.3624C142.541 19.9756 143.121 18.8973 144.159 18.0766C144.651 17.6854 145.196 17.3928 145.776 17.2083C147.322 16.7184 148.893 16.5276 150.498 16.8298C151.542 17.027 152.592 17.2115 153.567 17.6822C153.772 17.7808 153.964 17.9144 154.16 18.0385C154.365 18.1689 154.484 18.3756 154.535 18.6142C154.661 19.1708 154.686 19.7307 154.494 20.2746C154.443 20.4146 154.33 20.5736 154.207 20.6277C153.85 20.7835 153.472 20.7963 153.106 20.6308C152.882 20.5322 152.743 20.3318 152.665 20.106C152.52 19.6925 152.22 19.473 151.86 19.3203C151.649 19.2313 151.438 19.1295 151.217 19.0818C149.867 18.786 148.514 18.7287 147.152 18.9864C146.615 19.0881 146.136 19.3172 145.707 19.6607C145.048 20.1919 144.707 20.9744 144.975 22.0177C145.102 22.5075 145.439 22.8511 145.83 23.1055C146.347 23.4427 146.921 23.6654 147.521 23.7958C148.413 23.993 149.306 24.1807 150.201 24.3333C150.955 24.4637 151.674 24.7023 152.397 24.9472C152.756 25.0681 153.103 25.2526 153.425 25.4562C154.73 26.2832 155.273 27.5332 155.147 29.1205H155.144Z" fill="white"/>
<path d="M168.727 32.1709C168.62 32.4858 168.355 32.6767 168.087 32.823C167.261 33.2651 166.39 33.5037 165.378 33.4687C164.53 33.5291 163.646 33.3192 162.82 32.8834C161.975 32.4381 161.369 31.7383 161.032 30.7936C160.814 30.1893 160.657 29.569 160.641 28.9169C160.628 28.2744 160.622 27.6319 160.619 26.9893C160.619 24.8995 160.619 22.8097 160.612 20.7167C160.612 20.316 160.571 19.9152 160.546 19.5144C160.534 19.3299 160.281 19.0309 160.124 19.0118C159.524 18.9418 158.922 18.891 158.329 18.786C158.108 18.7478 157.938 18.5283 157.894 18.2834C157.853 18.0512 157.85 17.8063 157.865 17.5709C157.887 17.221 158.137 16.9634 158.417 16.8966C159.007 16.7598 159.632 16.8998 160.212 16.6548C160.347 16.5944 160.455 16.4831 160.505 16.3177C160.694 15.691 160.575 15.0422 160.638 14.406C160.663 14.1706 160.694 13.9257 160.773 13.7062C160.824 13.5726 160.959 13.4422 161.085 13.3849C161.521 13.1941 161.972 13.2291 162.423 13.3309C162.584 13.3659 162.814 13.6617 162.864 13.8366C162.997 14.3074 162.94 14.794 162.975 15.2712C162.997 15.5893 163.038 15.9073 163.076 16.2222C163.091 16.359 163.423 16.6517 163.561 16.6962C163.93 16.8107 164.309 16.7916 164.684 16.8043C165.517 16.833 166.349 16.7566 167.182 16.8807C167.441 16.922 167.756 17.2178 167.784 17.5073C167.806 17.7459 167.8 17.9876 167.791 18.2262C167.791 18.2993 167.728 18.3693 167.699 18.4425C167.639 18.592 167.529 18.6937 167.374 18.7542C167.012 18.9005 166.633 18.8687 166.258 18.8878C165.353 18.9291 164.441 18.7923 163.542 18.9927C163.407 19.0214 163.082 19.3331 163.063 19.4667C163.044 19.6257 163.006 19.7816 162.994 19.9406C162.981 20.0997 162.978 20.2619 162.978 20.4241C162.978 22.9179 162.978 25.4085 162.972 27.9022C162.972 28.5479 163.025 29.1873 163.24 29.8012C163.467 30.4405 163.87 30.8922 164.47 31.134C164.971 31.3344 165.485 31.4775 166.024 31.3693C166.412 31.293 166.737 31.1181 166.889 30.695C166.939 30.5455 166.977 30.3896 167.037 30.2433C167.132 29.992 167.349 29.8934 167.57 29.8584C167.791 29.8235 168.021 29.8394 168.245 29.8584C168.497 29.8744 168.677 30.0557 168.753 30.2751C168.958 30.8986 168.942 31.5411 168.737 32.1614L168.727 32.1709Z" fill="white"/>
<path d="M186.922 24.6037C186.922 24.7627 186.897 24.9218 186.888 25.084C186.869 25.3798 186.588 25.7074 186.32 25.7361C186.02 25.7679 185.718 25.8156 185.418 25.8156C183.677 25.822 181.936 25.8188 180.195 25.8188V25.8283C178.454 25.8283 176.71 25.8283 174.969 25.8283C174.669 25.8283 174.367 25.822 174.073 25.946C173.928 26.0064 173.837 26.1051 173.783 26.28C173.685 26.6013 173.72 26.9193 173.818 27.2215C174.528 29.3845 175.991 30.6473 178.069 31.1276C178.883 31.3152 179.706 31.3948 180.551 31.2834C181.703 31.1308 182.766 30.7713 183.709 30.0429C183.888 29.903 184.1 29.798 184.276 29.6517C184.469 29.4958 184.916 29.5944 185.115 29.7948C185.222 29.9061 185.33 30.0206 185.424 30.1447C185.695 30.4978 185.696 30.9494 185.437 31.2357C185.333 31.3502 185.232 31.4743 185.118 31.5793C183.923 32.6576 182.497 33.1792 180.98 33.3987C179.463 33.615 177.953 33.4878 176.496 32.9534C174.31 32.1518 172.673 30.695 171.796 28.3825C171.251 26.9448 171.017 25.4466 171.27 23.8944C171.383 23.1819 171.497 22.4725 171.762 21.795C172.761 19.2345 174.521 17.6281 177.06 16.9856C177.65 16.8361 178.243 16.7025 178.852 16.6898C180.16 16.6612 181.412 16.9315 182.602 17.5041C184.576 18.4552 185.866 20.0551 186.531 22.2372C186.765 23.0069 186.929 23.7862 186.926 24.6005L186.922 24.6037ZM184.519 23.2996C184.462 23.0674 184.431 22.8288 184.352 22.603C183.567 20.3541 182.021 19.139 179.798 18.8623C179.041 18.7701 178.29 18.8432 177.549 19.0054C177.328 19.0532 177.114 19.1359 176.906 19.2281C175.348 19.9088 174.304 21.1016 173.805 22.8129C173.739 23.0387 173.726 23.2741 173.786 23.519C173.827 23.6972 173.89 23.8212 174.064 23.8594C174.282 23.9071 174.499 23.9962 174.72 23.9993C176.152 24.0121 177.584 24.0057 179.019 24.0057V24.0152C180.451 24.0152 181.882 24.0152 183.317 24.0152C183.617 24.0152 183.917 23.993 184.204 23.8753C184.349 23.818 184.56 23.4745 184.522 23.2996H184.519Z" fill="white"/>
<path d="M199.727 18.4234C199.715 18.6269 199.469 18.8814 199.283 18.9132C199.059 18.9482 198.835 18.9991 198.608 19.0118C197.996 19.0532 197.415 19.2408 196.848 19.4794C195.738 19.9502 194.943 20.7899 194.46 21.9382C194.186 22.5998 193.968 23.2996 193.943 24.0312C193.858 26.2037 193.851 28.3794 193.952 30.5519C193.962 30.7332 194.189 31.0099 194.378 31.0544C194.599 31.1085 194.823 31.1562 195.041 31.2135C195.451 31.3216 195.662 31.5983 195.671 32.0787C195.678 32.314 195.637 32.5526 195.605 32.7912C195.589 32.9407 195.258 33.2556 195.123 33.2619C194.593 33.2937 194.066 33.3287 193.536 33.3478C193.233 33.3605 192.927 33.3478 192.625 33.3478V33.3637C191.94 33.3446 191.259 33.3287 190.575 33.3001C190.067 33.281 189.78 32.9438 189.777 32.3427C189.777 32.1073 189.814 31.8624 189.887 31.6397C189.931 31.5029 190.054 31.3502 190.18 31.2993C190.458 31.188 190.761 31.1371 191.051 31.0544C191.243 31.0004 191.473 30.73 191.492 30.555C191.511 30.3165 191.552 30.0747 191.552 29.8362C191.552 26.6935 191.562 23.5509 191.552 20.4114C191.552 20.0965 191.483 19.7784 191.429 19.4635C191.401 19.2885 191.291 19.1709 191.136 19.1295C190.846 19.0468 190.543 18.9959 190.262 18.8878C190.054 18.8082 189.884 18.6587 189.824 18.3884C189.755 18.0671 189.77 17.749 189.811 17.4309C189.833 17.256 190.108 16.9697 190.266 16.9379C190.414 16.9093 190.562 16.8457 190.71 16.8425C191.467 16.8361 192.227 16.8425 192.984 16.8552C193.404 16.8616 193.719 17.1542 193.782 17.5645C193.833 17.8826 193.867 18.2007 193.918 18.5156C193.952 18.7319 194.249 18.8273 194.441 18.6778C194.747 18.4424 195.044 18.188 195.356 17.9621C195.99 17.5041 196.668 17.1574 197.428 17.0079C197.948 16.9029 198.459 16.7407 198.999 16.7375C199.361 16.7375 199.752 17.0588 199.768 17.4627C199.781 17.7808 199.752 18.1021 199.727 18.4202V18.4234Z" fill="white"/>
<path d="M221.007 32.4349C220.994 32.8516 220.672 33.2715 220.338 33.281C219.351 33.3128 218.364 33.3383 217.38 33.3446C216.85 33.3478 216.317 33.3128 215.787 33.2842C215.434 33.2651 215.128 32.8802 215.102 32.454C215.09 32.2123 215.102 31.9769 215.166 31.7415C215.235 31.4807 215.408 31.328 215.617 31.2453C215.825 31.1594 216.061 31.153 216.282 31.099C216.547 31.0354 216.799 30.6855 216.815 30.396C216.821 30.2338 216.85 30.0747 216.85 29.9157C216.856 27.9818 216.856 26.0478 216.859 24.1139C216.859 23.465 216.771 22.8288 216.632 22.199C216.219 20.3319 214.882 19.2504 213.311 18.9959C212.482 18.8623 211.643 18.8655 210.813 19.0118C209.571 19.2345 208.523 19.8452 207.732 20.9044C207.448 21.2861 207.218 21.7028 207.066 22.164C206.817 22.9274 206.625 23.7067 206.628 24.5242C206.628 25.4117 206.628 26.2959 206.628 27.1834H206.603C206.622 28.2299 206.637 29.2764 206.663 30.3229C206.675 30.7904 206.915 31.029 207.356 31.1244C207.508 31.1562 207.656 31.1817 207.801 31.2167C208.135 31.2962 208.315 31.5475 208.375 31.8783C208.416 32.1105 208.397 32.3586 208.381 32.5971C208.363 32.9057 208.057 33.2428 207.817 33.2715C207.666 33.2906 207.517 33.3287 207.366 33.3287C206 33.3224 204.635 33.3128 203.269 33.2937C202.856 33.2874 202.55 32.9757 202.522 32.5399C202.506 32.3013 202.528 32.0628 202.544 31.8242C202.544 31.7479 202.578 31.6588 202.622 31.6015C202.717 31.4807 202.815 31.328 202.941 31.2803C203.225 31.1721 203.528 31.1212 203.821 31.0513C204.001 31.0067 204.221 30.7268 204.234 30.5391C204.25 30.2974 204.281 30.0557 204.281 29.8171C204.281 26.6744 204.288 23.5318 204.281 20.3891C204.281 20.0742 204.212 19.7561 204.162 19.4412C204.13 19.2631 204.02 19.1581 203.862 19.1168C203.565 19.0436 203.266 18.9927 202.982 18.8846C202.774 18.8051 202.604 18.6524 202.547 18.382C202.481 18.0608 202.493 17.7459 202.547 17.4278C202.575 17.2528 202.85 16.9666 203.007 16.9347C203.08 16.9188 203.152 16.8902 203.228 16.8807C204.061 16.7821 204.893 16.8011 205.729 16.8648C206.054 16.8902 206.483 17.1606 206.505 17.5964C206.521 17.9144 206.581 18.2325 206.628 18.5474C206.663 18.7637 206.953 18.856 207.158 18.7096C207.473 18.4838 207.773 18.2421 208.094 18.0258C209.835 16.8489 211.744 16.499 213.765 16.7916C214.213 16.8584 214.664 16.9666 215.096 17.1129C216.96 17.7459 218.225 19.0436 218.818 21.0285C219.092 21.9541 219.237 22.9052 219.231 23.8849C219.218 25.4975 219.225 27.107 219.231 28.7197C219.231 29.2827 219.253 29.8457 219.272 30.4087C219.285 30.7491 219.483 31.0099 219.799 31.0926C220.019 31.1499 220.25 31.1658 220.467 31.2389C220.783 31.3439 220.94 31.6174 220.997 31.9483C221.022 32.1041 221.01 32.2695 221.007 32.4286V32.4349Z" fill="white"/>
<path d="M239.151 24.6037C239.151 24.7627 239.126 24.9218 239.116 25.084C239.097 25.3798 238.817 25.7074 238.549 25.7361C238.249 25.7679 237.946 25.8156 237.647 25.8156C235.906 25.822 234.165 25.8188 232.424 25.8188V25.8283C230.683 25.8283 228.939 25.8283 227.198 25.8283C226.898 25.8283 226.595 25.822 226.302 25.946C226.157 26.0064 226.065 26.1051 226.012 26.28C225.914 26.6013 225.949 26.9193 226.047 27.2215C226.756 29.3845 228.22 30.6473 230.298 31.1276C231.112 31.3152 231.935 31.3948 232.78 31.2834C233.931 31.1308 234.994 30.7713 235.937 30.0429C236.117 29.903 236.328 29.798 236.505 29.6517C236.697 29.4958 237.145 29.5944 237.344 29.7948C237.451 29.9061 237.558 30.0206 237.653 30.1447C237.924 30.4978 237.924 30.9494 237.666 31.2357C237.561 31.3502 237.461 31.4743 237.347 31.5793C236.152 32.6576 234.726 33.1792 233.209 33.3987C231.692 33.615 230.181 33.4878 228.724 32.9534C226.539 32.1518 224.902 30.695 224.025 28.3825C223.479 26.9448 223.246 25.4466 223.498 23.8944C223.612 23.1819 223.725 22.4725 223.99 21.795C224.99 19.2345 226.75 17.6281 229.289 16.9856C229.879 16.8361 230.471 16.7025 231.08 16.6898C232.389 16.6612 233.641 16.9315 234.83 17.5041C236.804 18.4552 238.094 20.0551 238.76 22.2372C238.993 23.0069 239.157 23.7862 239.154 24.6005L239.151 24.6037ZM236.748 23.2996C236.691 23.0674 236.659 22.8288 236.581 22.603C235.795 20.3541 234.25 19.139 232.026 18.8623C231.269 18.7701 230.519 18.8432 229.778 19.0054C229.557 19.0532 229.342 19.1359 229.134 19.2281C227.576 19.9088 226.532 21.1016 226.034 22.8129C225.968 23.0387 225.955 23.2741 226.015 23.519C226.056 23.6972 226.119 23.8212 226.293 23.8594C226.51 23.9071 226.728 23.9962 226.949 23.9993C228.38 24.0121 229.812 24.0057 231.247 24.0057V24.0152C232.679 24.0152 234.111 24.0152 235.546 24.0152C235.846 24.0152 236.145 23.993 236.432 23.8753C236.577 23.818 236.789 23.4745 236.751 23.2996H236.748Z" fill="white"/>
<path d="M251.953 18.4234C251.937 18.6269 251.694 18.8814 251.508 18.9132C251.281 18.9482 251.06 18.9991 250.833 19.0118C250.218 19.0532 249.638 19.2408 249.073 19.4794C247.96 19.9502 247.168 20.7899 246.686 21.9382C246.408 22.5998 246.194 23.2996 246.165 24.0312C246.083 26.2037 246.074 28.3794 246.175 30.5519C246.184 30.7332 246.414 31.0099 246.6 31.0544C246.824 31.1085 247.045 31.1562 247.263 31.2135C247.673 31.3216 247.887 31.5983 247.897 32.0787C247.897 32.314 247.859 32.5526 247.83 32.7912C247.812 32.9407 247.48 33.2556 247.348 33.2619C246.818 33.2937 246.288 33.3287 245.758 33.3478C245.456 33.3605 245.15 33.3478 244.847 33.3478V33.3637C244.166 33.3446 243.484 33.3287 242.8 33.3001C242.289 33.281 242.002 32.9438 241.999 32.3427C241.999 32.1073 242.037 31.8624 242.109 31.6397C242.153 31.5029 242.28 31.3502 242.403 31.2993C242.68 31.188 242.983 31.1371 243.276 31.0544C243.465 31.0004 243.699 30.73 243.715 30.555C243.737 30.3165 243.775 30.0747 243.775 29.8362C243.781 26.6935 243.784 23.5509 243.775 20.4114C243.775 20.0965 243.705 19.7784 243.655 19.4635C243.623 19.2885 243.513 19.1709 243.361 19.1295C243.068 19.0468 242.768 18.9959 242.488 18.8878C242.276 18.8082 242.106 18.6587 242.046 18.3884C241.977 18.0671 241.993 17.749 242.034 17.4309C242.056 17.256 242.327 16.9697 242.488 16.9379C242.636 16.9093 242.784 16.8457 242.932 16.8425C243.689 16.8361 244.45 16.8425 245.206 16.8552C245.626 16.8616 245.938 17.1542 246.004 17.5645C246.055 17.8826 246.09 18.2007 246.137 18.5156C246.172 18.7319 246.471 18.8273 246.664 18.6778C246.969 18.4424 247.266 18.188 247.578 17.9621C248.209 17.5041 248.89 17.1574 249.65 17.0079C250.171 16.9029 250.682 16.7407 251.221 16.7375C251.584 16.7375 251.975 17.0588 251.994 17.4627C252.006 17.7808 251.978 18.1021 251.953 18.4202V18.4234Z" fill="white"/>
<path d="M94.822 42.849C95.8849 42.849 96.9477 42.833 98.0106 42.8553C98.8432 42.8744 99.6759 42.9189 100.508 42.9889C101.581 43.0811 102.593 43.4151 103.552 43.9241C103.889 44.1054 104.224 44.3026 104.533 44.5316C106.198 45.7626 107.043 47.5025 107.242 49.6146C107.343 50.6674 107.229 51.698 106.924 52.7159C106.523 54.0709 105.785 55.1619 104.722 56.008C103.861 56.6951 102.893 57.1659 101.852 57.4203C100.669 57.7098 99.4709 57.9134 98.244 57.8974C96.8027 57.8784 95.3613 57.8974 93.92 57.9165C93.6961 57.9165 93.4721 57.9929 93.2545 58.0533C93.1914 58.0692 93.141 58.1487 93.0874 58.2028C93.0337 58.2601 92.9517 58.3173 92.9391 58.3841C92.7657 59.5833 92.7594 60.7825 92.9265 61.9816C92.9517 62.1629 93.0369 62.2806 93.2009 62.3411C93.551 62.4747 93.9074 62.6082 94.2575 62.745C94.4088 62.8055 94.4845 62.9391 94.5319 63.1045C94.6265 63.4194 94.6139 63.7374 94.5792 64.0587C94.5476 64.3291 94.2196 64.6535 93.961 64.6694C92.3714 64.7617 90.7819 64.7839 89.1891 64.6567C89.0346 64.644 88.7602 64.3609 88.7097 64.1987C88.6151 63.8806 88.612 63.5593 88.6719 63.2476C88.7129 63.0154 88.8264 62.7864 89.0661 62.7037C89.35 62.6019 89.6528 62.5415 89.9303 62.4238C90.1385 62.3347 90.3245 62.1757 90.3498 61.9085C90.3813 61.5904 90.4192 61.2691 90.4192 60.9479C90.4255 56.1957 90.4192 51.4435 90.4192 46.6914C90.4192 46.2874 90.4318 45.8803 90.3088 45.4954C90.2646 45.3554 90.1479 45.1964 90.0249 45.1455C89.7505 45.0278 89.4509 44.9547 89.1544 44.8879C88.8958 44.8306 88.7728 44.6302 88.7066 44.4044C88.6151 44.0958 88.6088 43.7746 88.694 43.4533C88.735 43.2879 88.9841 42.9889 89.1387 42.9666C89.4383 42.9285 89.7411 42.8649 90.0407 42.8649C91.6334 42.8553 93.2261 42.8585 94.822 42.8585V42.8521V42.849ZM92.8224 50.1903C92.8224 51.4785 92.8161 52.7636 92.8287 54.0518C92.8287 54.3731 92.8761 54.6912 92.9044 55.0093C92.9171 55.1747 93.1883 55.4864 93.3397 55.5118C93.5636 55.55 93.7844 55.62 94.0083 55.6232C95.601 55.6327 97.1906 55.6359 98.7833 55.6263C99.2343 55.6263 99.6948 55.6009 100.139 55.5309C101.045 55.3878 101.915 55.1079 102.7 54.5989C103.792 53.8896 104.463 52.8717 104.694 51.5199C104.845 50.6356 104.823 49.7609 104.643 48.8862C104.479 48.075 104.104 47.388 103.577 46.7932C103.044 46.1952 102.395 45.7785 101.672 45.5208C100.736 45.19 99.7736 44.9642 98.777 44.9706C97.1843 44.9769 95.5947 44.9737 94.002 44.9801C93.8538 44.9801 93.7024 45.0151 93.5541 45.0278C93.2009 45.0564 92.8855 45.4318 92.8634 45.8516C92.8508 46.0934 92.8287 46.332 92.8287 46.5737C92.8287 47.7792 92.8287 48.9848 92.8287 50.1935L92.8224 50.1903Z" fill="white"/>
<path d="M127.966 63.9124C127.938 64.1923 127.619 64.5517 127.389 64.5708C126.859 64.6122 126.33 64.644 125.897 64.6726C125.421 64.6376 125.046 64.609 124.664 64.5835C124.44 64.5676 124.078 64.2146 124.03 63.9601C123.964 63.5657 123.91 63.1712 123.844 62.7768C123.81 62.5733 123.475 62.4842 123.295 62.6273C123.049 62.8182 122.813 63.0186 122.567 63.2094C121.176 64.3004 119.605 64.7839 117.88 64.7839C116.407 64.7839 115.016 64.4404 113.733 63.6865C111.847 62.5733 110.658 60.8842 110.106 58.6608C109.686 56.9718 109.743 55.3082 110.223 53.6574C110.708 51.9938 111.613 50.6261 112.963 49.6146C113.837 48.9561 114.796 48.4949 115.859 48.2722C116.455 48.1482 117.044 47.9892 117.656 47.9923C119.441 48.0019 121.113 48.4281 122.561 49.5987C122.803 49.7927 123.043 49.9867 123.289 50.1776C123.472 50.3207 123.8 50.1966 123.822 49.9772C123.869 49.5 123.92 49.0229 123.974 48.5458C123.986 48.4217 124.336 48.0687 124.45 48.056C125.431 47.9319 126.415 47.9414 127.399 48.0464C127.626 48.0719 127.951 48.4313 127.963 48.7176C127.976 48.9593 127.998 49.2042 127.963 49.4396C127.913 49.7704 127.736 50.0312 127.411 50.1267C127.194 50.1935 126.96 50.203 126.749 50.2857C126.538 50.3684 126.355 50.5211 126.304 50.7787C126.27 50.9346 126.229 51.0936 126.229 51.2495C126.222 54.6307 126.219 58.0119 126.222 61.3932C126.222 61.5522 126.257 61.7144 126.292 61.8671C126.352 62.1152 126.512 62.2902 126.733 62.3665C127.017 62.4651 127.323 62.5033 127.601 62.6178C127.72 62.6687 127.818 62.8309 127.888 62.9645C128.042 63.2635 127.998 63.5911 127.963 63.9092L127.966 63.9124ZM123.854 55.5245C123.554 52.3469 121.23 50.3875 118.848 50.203C118.549 50.1807 118.246 50.168 118.057 50.1585C117.792 50.1712 117.641 50.1776 117.492 50.1839C114.786 50.3334 112.619 52.5282 112.323 55.3241C112.238 56.1289 112.247 56.9209 112.364 57.7193C112.481 58.5272 112.755 59.2652 113.168 59.9459C113.9 61.1355 114.916 61.9466 116.193 62.3379C117.218 62.6528 118.265 62.7228 119.334 62.5001C120.4 62.2774 121.34 61.8099 122.129 61.0178C123.163 59.9841 123.728 58.6958 123.857 57.204C123.904 56.6474 123.907 56.078 123.857 55.5245H123.854Z" fill="white"/>
<path d="M141.096 49.7195C141.08 49.9231 140.837 50.1776 140.651 50.2094C140.424 50.2444 140.204 50.2953 139.976 50.308C139.361 50.3493 138.781 50.537 138.217 50.7756C137.103 51.2463 136.312 52.0861 135.829 53.2343C135.552 53.896 135.337 54.5957 135.309 55.3273C135.227 57.4998 135.217 59.6755 135.318 61.848C135.328 62.0293 135.558 62.3061 135.744 62.3506C135.968 62.4047 136.189 62.4524 136.406 62.5096C136.816 62.6178 137.031 62.8945 137.04 63.3748C137.04 63.6102 137.002 63.8488 136.974 64.0873C136.955 64.2368 136.624 64.5517 136.491 64.5581C135.962 64.5899 135.432 64.6249 134.902 64.644C134.599 64.6567 134.293 64.644 133.99 64.644V64.6599C133.309 64.6408 132.628 64.6249 131.943 64.5963C131.433 64.5772 131.146 64.24 131.142 63.6388C131.142 63.4035 131.18 63.1585 131.253 62.9359C131.297 62.7991 131.423 62.6464 131.546 62.5955C131.824 62.4842 132.126 62.4333 132.42 62.3506C132.609 62.2965 132.842 62.0262 132.858 61.8512C132.88 61.6126 132.918 61.3709 132.918 61.1323C132.924 57.9897 132.927 54.847 132.918 51.7075C132.918 51.3926 132.849 51.0746 132.798 50.7597C132.767 50.5847 132.656 50.467 132.505 50.4257C132.212 50.343 131.912 50.2921 131.631 50.1839C131.42 50.1044 131.25 49.9549 131.19 49.6845C131.12 49.3633 131.136 49.0452 131.177 48.7271C131.199 48.5522 131.47 48.2659 131.631 48.2341C131.779 48.2055 131.928 48.1418 132.076 48.1387C132.833 48.1323 133.593 48.1387 134.35 48.1514C134.769 48.1577 135.082 48.4504 135.148 48.8607C135.198 49.1788 135.233 49.4969 135.28 49.8118C135.315 50.0281 135.615 50.1235 135.807 49.974C136.113 49.7386 136.409 49.4842 136.722 49.2583C137.352 48.8003 138.034 48.4536 138.794 48.3041C139.314 48.1991 139.825 48.0369 140.364 48.0337C140.727 48.0337 141.118 48.355 141.137 48.7589C141.15 49.077 141.121 49.3983 141.096 49.7164V49.7195Z" fill="white"/>
<path d="M161.07 63.8042C161.051 64.205 160.695 64.5772 160.348 64.5963C158.906 64.6821 157.468 64.6662 156.027 64.6058C155.951 64.6026 155.875 64.5835 155.8 64.574C155.591 64.5486 155.219 64.1669 155.188 63.9283C155.169 63.7693 155.131 63.607 155.147 63.4512C155.175 63.1331 155.229 62.815 155.279 62.5001C155.333 62.1598 155.241 61.8671 155.043 61.6063C154.759 61.2309 154.475 60.8524 154.182 60.4835C153.453 59.5547 152.725 58.629 151.993 57.7066C151.845 57.5221 151.709 57.3217 151.536 57.169C151.368 57.0164 151.17 56.87 150.962 56.8096C150.854 56.7778 150.671 56.9018 150.564 57.0036C149.643 57.8434 148.735 58.6926 147.823 59.5419C147.584 59.7678 147.461 60.0731 147.445 60.3944C147.417 60.8715 147.445 61.355 147.467 61.8385C147.477 62.0611 147.672 62.3092 147.871 62.357C148.092 62.411 148.312 62.4715 148.533 62.5065C148.694 62.5351 148.814 62.6051 148.918 62.7355C149.243 63.1394 149.274 63.8901 148.968 64.3004C148.924 64.3609 148.858 64.4054 148.792 64.4499C148.732 64.4945 148.666 64.5549 148.599 64.5613C147.01 64.7012 145.423 64.6885 143.831 64.574C143.619 64.5581 143.272 64.1859 143.244 63.9124C143.216 63.6738 143.187 63.4194 143.244 63.1935C143.316 62.885 143.474 62.6019 143.812 62.516C143.887 62.4969 143.96 62.4778 144.036 62.4619C144.181 62.4269 144.332 62.3951 144.477 62.3601C144.657 62.3188 144.912 62.0262 144.922 61.8639C144.947 61.3836 144.988 60.9001 144.991 60.4198C144.998 58.0056 144.991 55.5913 144.991 53.1739C144.991 50.7565 144.991 48.1832 144.991 45.6862C144.991 45.2059 144.95 44.7256 144.916 44.2421C144.897 43.9368 144.673 43.6919 144.338 43.6028C144.19 43.5646 144.039 43.5551 143.894 43.5137C143.402 43.377 143.197 43.0366 143.219 42.4291C143.219 42.3496 143.234 42.27 143.247 42.1905C143.291 41.8724 143.569 41.583 143.834 41.548C144.742 41.4271 145.647 41.4653 146.556 41.5194C146.95 41.5416 147.303 41.8724 147.325 42.2573C147.357 42.8203 147.391 43.3801 147.391 43.9431C147.401 47.2448 147.391 50.5434 147.398 53.8451C147.398 54.4876 147.42 55.1333 147.451 55.7758C147.458 55.9476 147.571 56.0653 147.688 56.148C147.839 56.2498 147.975 56.2434 148.11 56.1289C148.23 56.0303 148.369 55.9571 148.483 55.8522C150.138 54.3126 151.788 52.7731 153.437 51.2304C153.806 50.8869 154.021 50.5147 153.712 49.9835C153.551 49.7068 153.579 49.3601 153.595 49.0388C153.595 48.9593 153.617 48.8798 153.63 48.8003C153.671 48.5331 154.002 48.1959 154.251 48.1768C154.551 48.1514 154.857 48.1132 155.156 48.1164C156.367 48.1228 157.585 48.0464 158.793 48.1832C159.007 48.2086 159.234 48.285 159.357 48.5267C159.597 48.9879 159.565 49.4555 159.37 49.9072C159.316 50.0344 159.155 50.1299 159.023 50.1871C158.887 50.2476 158.723 50.2698 158.578 50.2666C157.859 50.2444 157.263 50.4893 156.736 51.0332C155.699 52.0956 154.62 53.1135 153.567 54.1568C153.406 54.319 153.277 54.5226 153.141 54.7134C153.037 54.8534 153.034 55.0093 153.116 55.1683C153.188 55.3082 153.245 55.4641 153.34 55.585C154.976 57.7002 156.617 59.8091 158.26 61.918C158.515 62.2456 158.853 62.3983 159.25 62.4333C159.701 62.4715 160.168 62.392 160.603 62.5669C160.736 62.621 160.84 62.7514 160.944 62.8627C160.991 62.9168 161.016 63.009 161.026 63.0854C161.048 63.3208 161.079 63.5625 161.067 63.7979L161.07 63.8042Z" fill="white"/>
<path d="M36.191 0C16.2048 0 0 16.3431 0 36.5C0 56.6569 16.2048 73 36.191 73C56.1773 73 72.3821 56.6569 72.3821 36.5C72.3821 16.3431 56.1773 0 36.191 0ZM36.191 5.35651C46.8386 5.35651 56.2435 10.818 61.7976 19.1104C61.4727 19.1104 60.4887 19.0913 60.1638 19.0913C59.4668 19.0913 56.7009 19.0436 56.0165 19.0436C55.2469 19.0436 54.5814 19.2058 53.9601 19.2472C53.3861 19.2631 51.8439 19.1772 51.5411 19.4985C51.2383 19.8197 51.4496 19.9788 51.3771 20.634C51.2383 21.8714 51.1532 23.4681 51.478 25.0458C51.5726 25.5102 51.642 25.8442 52.0047 26.0732C53.036 26.7285 53.4776 27.8259 53.0896 29.0091C52.6765 30.2592 52.339 31.5602 51.9511 32.8007C51.1784 35.2849 50.3174 37.8359 49.3523 40.3297C49.1883 40.7496 48.794 41.637 47.7595 41.6911C47.3779 41.6021 46.9395 41.3857 46.5863 40.6414C45.6244 38.6152 39.654 19.4094 39.5594 19.3903C39.408 19.2758 39.1809 19.2599 38.9002 19.2313C37.8311 19.1231 35.8599 18.9927 35.8063 18.9927C34.9799 18.9927 34.0968 19.1041 33.0277 19.2122C32.747 19.2408 32.5294 19.2885 32.378 19.403C32.2834 19.4221 26.3382 38.628 25.3763 40.6542C25.0231 41.3985 24.5531 41.7356 24.1747 41.8247C23.1402 41.7738 22.6766 40.775 22.5126 40.3552C21.5475 37.8614 20.9167 35.234 20.144 32.7498C19.7592 31.5093 19.2735 30.2529 18.8603 29.006C18.4693 27.8259 18.8288 26.6235 19.8601 25.9683C20.2228 25.7393 20.3742 25.5166 20.472 25.0522C20.7968 23.4745 20.8915 21.8491 20.7527 20.6149C20.6801 19.9597 20.4089 19.648 20.3364 19.5589C20.2575 19.4953 18.5544 19.1708 17.9804 19.1549C17.3622 19.1168 16.6905 19.0532 15.9209 19.0532C15.2365 19.0532 14.5521 19.1422 13.8677 19.1549C13.1707 19.1677 12.4705 19.1231 11.7735 19.1231C11.5496 19.1231 11.0103 19.1136 10.5908 19.1072C16.1448 10.8212 25.5498 5.36288 36.191 5.36288V5.35651ZM36.191 67.6467C19.1631 67.6467 5.31117 53.6765 5.31117 36.5032C5.31117 32.7593 5.97034 29.165 7.17828 25.8347C7.17828 25.8347 7.18459 25.8347 7.18775 25.8347C7.7176 25.9905 8.18753 26.3373 8.65746 26.614C9.60363 27.1961 10.3353 27.9595 10.5498 28.6052C11.4392 31.2644 12.4453 33.9331 13.2905 36.5573C13.9087 38.4689 14.4575 40.4029 15.0851 42.3114C16.7062 47.2448 18.3715 52.2515 19.9831 57.0959C20.3301 58.1424 20.4026 58.1169 20.7495 59.1634C20.9198 59.6787 21.3078 60.2162 21.8155 60.3594C21.9953 60.4453 22.9573 60.4198 23.4682 60.4198C23.7268 60.4198 23.7268 60.3944 23.9823 60.3944C24.099 60.3912 24.2409 60.3912 24.386 60.388C24.6856 60.3848 24.9789 60.4866 25.2533 60.4644C26.354 60.3817 26.7388 59.9713 26.9123 59.5006C27.0447 59.1507 27.1141 58.7658 27.2434 58.3777C27.297 58.2187 27.3033 58.0501 27.357 57.8911C27.5966 56.3961 28.1107 55.0029 28.5491 53.6415C28.7257 53.0912 28.9434 52.5314 29.1074 51.9715C30.2775 47.9637 31.5327 43.9145 32.7249 39.9925C33.2295 38.3353 34.1347 34.6392 34.2356 34.4293C34.2829 34.3339 35.0115 32.7593 35.9608 32.6448C36.9133 32.7593 37.3359 33.6118 37.5441 34.1303C37.5882 34.2384 37.5598 34.3752 37.6071 34.4706C37.7112 34.6806 38.7047 38.3353 39.2093 39.9925C40.4015 43.9145 41.6284 47.9732 42.7985 51.9811C42.9625 52.5409 43.0697 53.1357 43.2463 53.686C43.6847 55.0474 45.0251 59.0998 45.1576 59.4497C45.3342 59.9204 45.5897 60.159 46.6872 60.2417C46.9616 60.264 47.2392 60.2894 47.5388 60.2926C47.6839 60.2926 48.1979 60.4103 48.4566 60.4103C48.9675 60.4103 49.9515 60.2608 50.1313 60.1749C50.6422 60.0318 51.0302 59.7232 51.2036 59.2079C51.5505 58.1614 51.5474 58.1264 51.8943 57.08C53.506 52.2356 55.3415 47.2862 56.9626 42.3527C57.5903 40.4442 58.2463 38.5421 58.8613 36.6304C59.7097 34.0062 60.4919 31.2644 61.3781 28.6052C61.5926 27.9595 62.3117 27.177 63.2547 26.5949C63.7246 26.3182 64.2608 26.1846 64.7906 26.0287C64.9294 25.9905 65.0492 25.8665 65.1849 25.8188C66.396 29.1523 67.0583 32.7498 67.0583 36.5032C67.0583 53.6765 53.2063 67.6467 36.1784 67.6467H36.191Z" fill="white"/>
</g>
<defs>
<clipPath id="clip0_187_2233">
<rect width="252" height="73" fill="white"/>
</clipPath>
</defs>
</svg>
