<svg width="109" height="109" viewBox="0 0 109 109" fill="none" xmlns="http://www.w3.org/2000/svg">
<path d="M17.7756 32.5747C16.2479 31.6924 14.2953 32.2163 13.4138 33.7431C12.5315 35.2708 13.0554 37.2234 14.5822 38.1049C16.109 38.9872 18.0625 38.4633 18.944 36.9365C19.8263 35.4088 19.3024 33.4562 17.7756 32.5747Z" fill="white"/>
<path d="M99.2062 25.7606H96.0128V22.5673C96.0128 20.8026 94.5849 19.3739 92.8194 19.3739C91.0548 19.3739 89.6261 20.8026 89.6261 22.5673V25.7606H86.4327C84.6681 25.7606 83.2394 27.1893 83.2394 28.954C83.2394 30.7195 84.6681 32.1473 86.4327 32.1473H89.6261V35.3407C89.6261 37.1053 91.0548 38.534 92.8194 38.534C94.5849 38.534 96.0128 37.1053 96.0128 35.3407V32.1473H99.2062C100.971 32.1473 102.4 30.7195 102.4 28.954C102.4 27.1893 100.971 25.7606 99.2062 25.7606Z" fill="white"/>
<path d="M12.9864 15.9676C12.9864 17.7331 14.4142 19.161 16.1797 19.161C17.9444 19.161 19.3731 17.7331 19.3731 15.9676V12.7743H22.5664C24.3311 12.7743 25.7598 11.3464 25.7598 9.58092C25.7598 7.81626 24.3311 6.38757 22.5664 6.38757H19.3731V3.19421C19.3731 1.42955 17.9444 0.000854492 16.1797 0.000854492C14.4142 0.000854492 12.9864 1.42955 12.9864 3.19421V6.38757H9.793C8.02833 6.38757 6.59964 7.81626 6.59964 9.58092C6.59964 11.3464 8.02833 12.7743 9.793 12.7743H12.9864V15.9676Z" fill="white"/>
<path d="M33.1569 5.97005C36.1964 12.0507 37.8846 18.7634 38.3095 25.5477H70.6905C71.1146 18.7643 72.8028 12.0507 75.8423 5.97005L76.5159 4.62286C77.1304 3.39458 76.8901 1.91017 75.9171 0.937191C74.9475 -0.0357851 73.4631 -0.276118 72.2314 0.338436L61.5162 5.69562L56.757 0.937191C55.5096 -0.310214 53.4888 -0.310214 52.2414 0.937191L47.4829 5.69562L36.7677 0.337605C35.5328 -0.276118 34.0584 -0.0391115 33.0821 0.937191C32.1091 1.90934 31.8687 3.39375 32.4833 4.62286L33.1569 5.97005Z" fill="white"/>
<path d="M74.051 32.1473H34.9473L22.4791 47.2376C16.3577 54.6505 12.9864 64.2464 12.9864 73.8739C12.9864 95.2128 29.2808 109 54.4992 109C79.7184 109 96.0128 95.2128 96.0128 73.8739C96.0128 64.2464 92.6415 54.8634 86.5167 47.4505L74.051 32.1473ZM54.4651 65.2293C59.7482 65.2293 64.0451 69.5262 64.0451 74.8094C64.0451 78.9541 61.384 82.4577 57.6925 83.7899V86.6473C57.6925 88.412 56.2647 89.8406 54.4992 89.8406C52.7345 89.8406 51.3066 88.412 51.3066 86.6473V83.8115C47.5794 82.4984 44.885 78.9791 44.885 74.8094C44.885 73.0439 46.3137 71.6161 48.0784 71.6161C49.8438 71.6161 51.2717 73.0439 51.2717 74.8094C51.2717 76.5716 52.7037 78.0028 54.4651 78.0028C56.2272 78.0028 57.6584 76.5716 57.6584 74.8094C57.6584 73.0472 56.2272 71.6161 54.4651 71.6161C49.1827 71.6161 44.885 67.3183 44.885 62.036C44.885 57.8655 47.5794 54.347 51.3066 53.0339V48.327C51.3066 46.5623 52.7345 45.1337 54.4992 45.1337C56.2647 45.1337 57.6925 46.5623 57.6925 48.327V53.0555C61.384 54.3877 64.0451 57.8913 64.0451 62.036C64.0451 63.8015 62.6173 65.2293 60.8518 65.2293C59.0871 65.2293 57.6584 63.8015 57.6584 62.036C57.6584 60.2747 56.2272 58.8426 54.4651 58.8426C52.7037 58.8426 51.2717 60.2747 51.2717 62.036C51.2717 63.7982 52.7029 65.2293 54.4651 65.2293Z" fill="white"/>
</svg>
