<svg width="25" height="22" viewBox="0 0 25 22" fill="none" xmlns="http://www.w3.org/2000/svg">
<path d="M24.6876 3.34218C23.7616 3.7499 22.7806 4.01903 21.7761 4.14091C22.8337 3.50527 23.6255 2.50845 24.0054 1.33452C23.0252 1.90651 21.939 2.32289 20.7826 2.55478C20.0197 1.73896 19.0087 1.19788 17.9068 1.01554C16.8048 0.8332 15.6735 1.01981 14.6884 1.5464C13.7034 2.07299 12.9198 2.91009 12.4593 3.9277C11.9988 4.94531 11.8872 6.0865 12.1418 7.17405C7.92655 6.97514 4.19053 4.95098 1.69023 1.89105C1.23551 2.66383 0.998331 3.54524 1.00383 4.44186C1.00383 6.20423 1.90048 7.75326 3.25884 8.6633C2.45378 8.63768 1.66649 8.42001 0.962606 8.02844V8.0913C0.962149 9.2625 1.36689 10.3978 2.10815 11.3045C2.84942 12.2113 3.88156 12.8337 5.02946 13.0661C4.28565 13.2654 3.50662 13.2954 2.74971 13.1537C3.07565 14.1616 3.70802 15.0427 4.55862 15.674C5.40922 16.3052 6.43564 16.6553 7.49472 16.6754C5.7009 18.0831 3.48606 18.8472 1.20583 18.8449C0.803889 18.8449 0.402975 18.8212 0 18.7758C2.32479 20.2644 5.02793 21.0545 7.78845 21.0525C17.1197 21.0525 22.2162 13.3269 22.2162 6.63812C22.2162 6.42272 22.2162 6.20526 22.2007 5.98883C23.1963 5.27238 24.0551 4.38291 24.7361 3.36279L24.6876 3.34218Z" fill="currentColor"/>
</svg>